<svg width="6" height="10" viewBox="0 0 6 10" fill="none" xmlns="http://www.w3.org/2000/svg">
<path d="M5.36015 4.52667L1.58682 0.760004C1.52484 0.697518 1.45111 0.647922 1.36987 0.614077C1.28863 0.580231 1.20149 0.562805 1.11348 0.562805C1.02548 0.562805 0.938339 0.580231 0.8571 0.614077C0.77586 0.647922 0.702126 0.697518 0.640151 0.760004C0.515983 0.884912 0.446289 1.05388 0.446289 1.23C0.446289 1.40613 0.515983 1.5751 0.640151 1.7L3.94015 5.03334L0.640151 8.33334C0.515983 8.45824 0.446289 8.62721 0.446289 8.80334C0.446289 8.97946 0.515983 9.14843 0.640151 9.27334C0.701894 9.33633 0.775524 9.38644 0.856774 9.42077C0.938024 9.4551 1.02528 9.47297 1.11348 9.47334C1.20169 9.47297 1.28894 9.4551 1.37019 9.42077C1.45144 9.38644 1.52507 9.33633 1.58682 9.27334L5.36015 5.50667C5.42782 5.44424 5.48183 5.36847 5.51876 5.28414C5.5557 5.19981 5.57477 5.10874 5.57477 5.01667C5.57477 4.9246 5.5557 4.83353 5.51876 4.7492C5.48183 4.66487 5.42782 4.5891 5.36015 4.52667Z" fill="#70798B"/>
</svg>
