<svg width="124" height="39" viewBox="0 0 124 39" fill="none" xmlns="http://www.w3.org/2000/svg">
<path d="M4.21766 29.9721H6.3056C7.26606 29.9721 8.143 29.6798 8.8529 29.1369C9.27049 29.638 9.89688 29.9721 10.6068 29.9721H12.5694C12.6112 29.9721 12.653 29.9721 12.653 29.9303V27.5918H12.6112V13.2685C12.6112 10.93 10.7321 9.00907 8.39355 9.00907H4.21766C1.87915 9.00907 0 10.93 0 13.2685V17.4026C0 17.4444 0 17.4861 0.041759 17.4861C2.38026 17.4861 4.30117 15.607 4.30117 13.2685V11.1805C4.30117 10.053 5.17811 9.17611 6.3056 9.17611C7.39134 9.17611 8.31004 10.053 8.31004 11.1805V17.862C7.72541 17.5279 7.01551 17.3191 6.3056 17.3191H4.21766C1.87915 17.3191 0 19.24 0 21.5785V25.7544C0 28.0929 1.87915 29.9721 4.21766 29.9721ZM4.30117 19.4906C4.30117 18.4048 5.17811 17.4861 6.3056 17.4861C7.01551 17.4861 7.72541 17.6949 8.31004 18.029V27.5918C8.31004 28.1347 8.47707 28.594 8.76938 29.0116C8.05948 29.5127 7.2243 29.8468 6.3056 29.8468C5.17811 29.8468 4.30117 28.9281 4.30117 27.8424V19.4906Z" fill="white"/>
<path d="M19.4832 29.9721H21.4041C21.4458 29.9721 21.4876 29.9721 21.4876 29.9303V27.5918C21.4876 27.5918 21.4876 27.5918 21.4876 27.5501V17.4861H23.5338C24.6195 17.5279 25.4965 18.4048 25.4965 19.4906V25.7544C25.4965 28.0929 27.4174 30.0138 29.7559 30.0138C29.7976 30.0138 29.7976 29.9721 29.7976 29.9303V21.5785C29.7976 19.5323 28.3361 17.7785 26.4152 17.4026C28.3361 17.0268 29.7976 15.3147 29.7976 13.2685V9.09259C29.7976 9.05083 29.7976 9.00907 29.7559 9.00907C27.4174 9.00907 25.4965 10.93 25.4965 13.2685V15.3564C25.4965 16.4422 24.6195 17.3191 23.5338 17.3191H21.4876V3.0793C21.4876 1.74301 20.4436 0.699036 19.1909 0.699036H17.2699C17.1864 0.699036 17.1864 0.699036 17.1864 0.740797V27.5918C17.1864 28.9281 18.2304 29.9721 19.4832 29.9721Z" fill="white"/>
<path d="M36.6288 38.3239H38.5497C38.5915 38.3239 38.6332 38.2821 38.6332 38.2403V29.471C39.2179 29.805 39.9278 29.9721 40.6377 29.9721H42.7256C45.0641 29.9721 46.985 28.0929 46.985 25.7544V13.2685C46.985 10.93 45.0641 9.00907 42.7256 9.00907H40.6377C39.6772 9.00907 38.8003 9.34314 38.0904 9.88601C37.6728 9.34314 37.0464 9.00907 36.3365 9.00907H34.4156C34.3738 9.00907 34.3321 9.05083 34.3321 9.09259V11.3893C34.3321 11.3893 34.3321 11.3893 34.3321 11.4311V35.9018C34.3321 37.2381 35.3343 38.3239 36.6288 38.3239ZM40.6377 9.17611C41.7652 9.17611 42.6421 10.053 42.6421 11.1805V27.8424C42.6421 28.9281 41.7652 29.8468 40.6377 29.8468C39.9278 29.8468 39.2179 29.638 38.6332 29.3039V11.4311C38.6332 10.8882 38.4662 10.3871 38.1739 10.0113C38.8838 9.46842 39.719 9.17611 40.6377 9.17611Z" fill="white"/>
<path d="M53.8152 29.9721H55.7362C55.7779 29.9721 55.8197 29.9721 55.8197 29.9303V27.5918C55.8197 27.5918 55.8197 27.5918 55.8197 27.5501V9.67721C56.4043 9.34314 57.1142 9.17611 57.8241 9.17611C58.9098 9.17611 59.8285 10.053 59.8285 11.1388V27.5918C59.8285 28.9281 60.8725 29.9721 62.1253 29.9721H64.088C64.1297 29.9721 64.1297 29.9721 64.1297 29.9303V13.2267C64.1297 10.8882 62.2506 9.00907 59.9121 9.00907H57.8241C57.1142 9.00907 56.4043 9.17611 55.8197 9.51018V3.0793C55.8197 1.74301 54.7757 0.699036 53.5229 0.699036H51.602C51.5185 0.699036 51.5185 0.699036 51.5185 0.740797V27.5918C51.5185 28.9281 52.5625 29.9721 53.8152 29.9721Z" fill="white"/>
<path d="M72.8818 29.9721H74.9697C75.9302 29.9721 76.8071 29.6798 77.517 29.1369C77.9346 29.638 78.561 29.9721 79.2709 29.9721H81.2336C81.2754 29.9721 81.3171 29.9721 81.3171 29.9303V27.5918H81.2753V13.2685C81.2753 10.93 79.3962 9.00907 77.0577 9.00907H72.8818C70.5433 9.00907 68.6641 10.93 68.6641 13.2685V17.4026C68.6641 17.4444 68.6641 17.4861 68.7059 17.4861C71.0444 17.4861 72.9653 15.607 72.9653 13.2685V11.1805C72.9653 10.053 73.8423 9.17611 74.9697 9.17611C76.0555 9.17611 76.9742 10.053 76.9742 11.1805V17.862C76.3895 17.5279 75.6797 17.3191 74.9697 17.3191H72.8818C70.5433 17.3191 68.6641 19.24 68.6641 21.5785V25.7544C68.6641 28.0929 70.5433 29.9721 72.8818 29.9721ZM72.9653 19.4906C72.9653 18.4048 73.8423 17.4861 74.9697 17.4861C75.6797 17.4861 76.3895 17.6949 76.9742 18.029V27.5918C76.9742 28.1347 77.1412 28.594 77.4335 29.0116C76.7236 29.5127 75.8885 29.8468 74.9697 29.8468C73.8423 29.8468 72.9653 28.9281 72.9653 27.8424V19.4906Z" fill="white"/>
<path d="M85.8506 27.5918C85.8506 28.9281 86.8528 29.9721 88.1473 29.9721H90.0682C90.11 29.9721 90.1517 29.9721 90.1517 29.9303V11.4311C90.1517 10.8882 89.9847 10.3871 89.6924 10.0113C90.4023 9.46842 91.2375 9.17611 92.1562 9.17611C93.2837 9.17611 94.1606 10.053 94.1606 11.1805V13.2685C94.1606 15.607 96.0815 17.4861 98.42 17.4861C98.4618 17.4861 98.5035 17.4444 98.5035 17.4026V13.2685C98.5035 10.93 96.5826 9.00907 94.2441 9.00907H92.1562C91.1957 9.00907 90.3188 9.34314 89.6089 9.88601C89.1913 9.34314 88.5649 9.00907 87.855 9.00907H85.8923C85.8506 9.00907 85.8506 9.05083 85.8506 9.09259V27.5918Z" fill="white"/>
<path d="M124 13.2267C124 10.8882 122.079 9.00907 119.741 9.00907H117.694C116.442 9.00907 115.314 9.55194 114.562 10.3871C113.769 9.55194 112.642 9.00907 111.431 9.00907H109.343C108.382 9.00907 107.505 9.34314 106.795 9.88601C106.378 9.34314 105.751 9.00907 105.041 9.00907H103.121C103.037 9.00907 103.037 9.05083 103.037 9.09259V27.5918C103.037 28.9281 104.081 29.9721 105.334 29.9721H107.255C107.296 29.9721 107.338 29.9721 107.338 29.9303V27.5918C107.338 27.5918 107.338 27.5918 107.338 27.5501V11.4311C107.338 10.8882 107.171 10.3871 106.879 10.0113C107.589 9.46842 108.424 9.17611 109.343 9.17611C110.428 9.17611 111.347 10.053 111.347 11.1388V27.5918C111.347 28.9281 112.391 29.9721 113.644 29.9721H115.606C115.648 29.9721 115.648 29.9721 115.648 29.9303V13.2267C115.648 12.1828 115.272 11.2641 114.646 10.5124C115.398 9.67721 116.483 9.17611 117.694 9.17611C118.78 9.17611 119.657 10.053 119.657 11.1388V27.5918C119.657 28.9281 120.701 29.9721 121.996 29.9721H123.916C123.958 29.9721 124 29.9721 124 29.9303V13.2267Z" fill="white"/>
</svg>
