<svg width="54" height="43" viewBox="0 0 54 43" fill="none" xmlns="http://www.w3.org/2000/svg">
<path d="M15.9466 8.71912C33.2196 20.515 27.0802 30.7243 23.1483 36.4911C22.486 30.4759 21.2444 24.7781 18.4989 19.6734C20.3062 28.5996 21.0098 33.9664 20.9822 36.7533C13.5322 31.897 7.88952 26.5302 15.9466 8.71912Z" fill="white"/>
<path d="M0.439453 31.4279C13.8909 25.9232 17.4641 33.387 19.3128 37.8708C15.574 35.9531 11.7938 34.4907 7.7791 34.132C13.6563 36.4912 17.0364 38.1467 18.6368 39.2228C12.9665 41.7062 7.69632 42.9341 0.439453 31.4279Z" fill="white"/>
<path d="M50.9064 36.8223C40.5316 47.004 34.406 41.4441 30.9983 37.9674C35.1924 38.3261 39.2347 38.2572 43.0977 37.0707C36.7652 37.0983 33.0126 36.8499 31.1225 36.4498C35.4269 32.035 39.8417 28.917 50.9064 36.8223Z" fill="white"/>
<path d="M52.1895 0C57.8046 30.1174 40.8903 34.3115 30.8327 36.1878C36.3926 29.2896 41.0144 22.1017 43.484 13.9757C36.1029 25.0817 31.2466 31.3729 28.3494 34.2149C25.6315 21.4671 25.3694 10.0713 52.1895 0Z" fill="white"/>
</svg>
